<?xml version="1.0" encoding="utf-8"?>
<!-- Generator: Adobe Illustrator 17.0.0, SVG Export Plug-In . SVG Version: 6.00 Build 0)  -->
<!DOCTYPE svg PUBLIC "-//W3C//DTD SVG 1.1//EN" "http://www.w3.org/Graphics/SVG/1.1/DTD/svg11.dtd">
<svg version="1.1" id="Layer_1" xmlns="http://www.w3.org/2000/svg" xmlns:xlink="http://www.w3.org/1999/xlink" x="0px" y="0px"
	 width="595.3px" height="595.3px" viewBox="0 0 595.3 595.3" style="enable-background:new 0 0 595.3 595.3;" xml:space="preserve"
	>
<style type="text/css">
	.st0{fill-rule:evenodd;clip-rule:evenodd;fill:#99D9E8;}
	.st1{fill-rule:evenodd;clip-rule:evenodd;fill:#FFFFFF;}
	.st2{fill-rule:evenodd;clip-rule:evenodd;fill:#333333;}
</style>
<g>
	<path class="st0" d="M28.6,142.3c1.3,83.2,9.6,157.1,47.2,234.7c43.1,89,122.7,183.3,219.5,217.5l2.4,0.8l2.4-0.8
		c96.8-34.2,176.4-128.6,219.5-217.5c37.6-77.6,45.9-151.5,47.2-234.7C506.8,104.7,454.3,56.4,411.9,0
		c-74.2,51.7-155.3,51.6-228.8,0.4C140.8,56.6,88.4,104.8,28.6,142.3z"/>
	<path class="st1" d="M44.4,153.1c0.9,75.3,6.5,141.2,44.4,219.5c35.9,74.1,94.2,140.6,160,182.4c14.2,9,29.4,16.4,46.6,22.4
		l2.2,0.8l2.2-0.8c17.2-6.1,32.4-13.4,46.6-22.4c65.8-41.9,124.1-108.4,160-182.4c37.9-78.3,43.5-144.2,44.4-219.5
		c-55.4-35.7-104.2-80.6-144.3-132.6C374.1,43.1,338.4,54,297.6,54c-40.7,0-76.4-11-108.9-33.5C148.7,72.5,99.8,117.4,44.4,153.1z"
		/>
	<path class="st0" d="M494.5,211.6V134c-21.9-18.4-42.5-38.4-61.4-59.8v137.4H494.5L494.5,211.6z M433.1,458.5
		c24.1-29.3,44.3-61.8,59.9-94.3c0.5-1.1,1-2.1,1.5-3.2v-33.2h-61.4V458.5L433.1,458.5z M383.7,211.6V49.1
		c-19.3,9.7-39.8,16.1-61.4,18.9v143.6H383.7L383.7,211.6z M322.3,548.7c21.9-10.6,42.5-24.2,61.4-40.1V327.8h-61.4V548.7
		L322.3,548.7z M273,211.6V68c-21.6-2.8-42.2-9.2-61.4-19v162.6H273L273,211.6z M211.5,508.6c19,15.9,39.5,29.6,61.4,40.1V327.8
		h-61.4V508.6L211.5,508.6z M162.2,211.6V74.2c-19,21.4-39.5,41.4-61.4,59.8v77.6H162.2L162.2,211.6z M100.8,361
		c0.5,1.1,1,2.1,1.5,3.2c15.6,32.5,35.8,65,59.9,94.3V327.8h-61.4V361z"/>
	<path class="st2" d="M284.7,245.1L284.7,245.1c1.8,2.3,3.8,5,6,8.1c2.2,3.1,4.6,6.4,7,9.9c2.5-3.5,4.7-6.7,6.8-9.8
		c2.1-3.1,3.8-5.8,5.2-8.2h14.5c-1.9,2.9-4,6-6.2,9.3c-2.3,3.4-4.7,6.8-7.1,10.3c-2.5,3.5-5,7-7.5,10.5v20.7h-11.7v-20.6
		c-2.7-3.8-5.4-7.6-8.2-11.4c-2.8-3.8-5.4-7.3-7.9-10.6c-2.5-3.2-4.7-6-6.5-8.2H284.7L284.7,245.1z M219.8,291L219.8,291v-14.2
		h-14.7v-13.5h31.1v39.5c-2,0.6-5.9,1.1-8.8,1.6c-2.9,0.5-6,0.9-9.2,1.2c-3.3,0.3-6.4,0.4-9.4,0.4c-5.5,0-10.2-0.5-14.2-1.7
		c-4.1-1.2-7.4-3.2-10-5.9c-2.6-2.7-4.6-6.4-6-11.1c-1.3-4.6-2-10.4-2-17.3c0-6.9,0.8-12.6,2.3-17.2c1.5-4.5,3.7-8.1,6.7-10.7
		c3-2.6,6.6-4.4,10.9-5.5c4.3-1.1,9.4-1.6,15-1.6c2.1,0,4.5,0.1,7.2,0.3c2.6,0.2,5.2,0.5,7.7,0.9c2.5,0.3,4.6,0.8,6.4,1.3l-2.8,13.9
		c-0.9-0.3-2-0.5-3.5-0.8c-1.5-0.2-3-0.4-4.7-0.6c-1.7-0.2-3.3-0.3-4.8-0.4c-1.6-0.1-2.9-0.1-4-0.1c-3.7,0-6.7,0.1-9.3,0.6
		c-2.5,0.4-4.5,1.4-6,2.7c-1.6,1.4-2.7,3.5-3.4,6.3c-0.7,2.8-1,6.5-1,11.2c0,4.6,0.3,8.4,1,11.2c0.7,2.8,1.8,5,3.2,6.4
		c1.5,1.5,3.4,2.4,5.8,2.9c2.4,0.5,5.3,0.7,8.7,0.7C214.7,291.5,217.3,291.3,219.8,291L219.8,291z M395.8,304.5L395.8,304.5h-15.8
		v-54.2h-22.7v-13.8h61.2v13.8h-22.6V304.5z"/>
</g>
</svg>
